<?xml version="1.0" encoding="UTF-8"?>
<svg width="200px" height="200px" viewBox="0 0 200 200" version="1.1" xmlns="http://www.w3.org/2000/svg" xmlns:xlink="http://www.w3.org/1999/xlink">
    <title>loader-spinner</title>
    <g id="Page-1" stroke="none" stroke-width="1" fill="none" fill-rule="evenodd">
        <g id="loader-spinner" fill-rule="nonzero">
            <path d="M100,1.42108547e-14 L100,13.0000106 C99.9850015,13 99.9700021,13 99.9550018,13 C51.9310804,13 13,51.9310804 13,99.9550018 C13,147.978923 51.9310804,186.910004 99.9550018,186.910004 C147.963923,186.910004 186.885683,148.00324 186.909992,100 L200,100 C200,155.228475 155.228475,200 100,200 C44.771525,200 0,155.228475 0,100 C0,44.771525 44.771525,1.42108547e-14 100,1.42108547e-14 Z" id="Path" fill="#E5E5E5"></path>
            <path d="M0,100 L13.0000106,100 L0,100 Z M100,186.909993 L100,200 L100,186.909993 Z M200,100 L186.909993,100 C186.91,99.9850015 186.910004,99.9700021 186.910004,99.9550018 C186.910004,51.9460807 148.00324,13.0243211 100,13.0000114 L100,0 C155.228475,0 200,44.771525 200,100 Z" id="Shape" fill="#005EB8"></path>
        </g>
    </g>
</svg>