<?xml version="1.0" encoding="UTF-8"?>
<svg width="102px" height="41px" viewBox="0 0 102 41" version="1.1" xmlns="http://www.w3.org/2000/svg" xmlns:xlink="http://www.w3.org/1999/xlink">
    <title>Artboard</title>
    <g id="Artboard" stroke="none" stroke-width="1" fill="none" fill-rule="evenodd">
        <rect fill="#FFFFFF" x="0" y="0" width="102" height="41"></rect>
        <path d="M0,41 L102,41 L102,0 L0,0 L0,41 Z M41,4 L33.9839267,37 L22.9724893,37 L16.0488278,14.1664183 L15.956416,14.1664183 L11.3502679,37 L3,37 L10.0738306,4 L21.1213664,4 L27.9078542,26.8842041 L28.0017099,26.8842041 L32.6497321,4 L41,4 Z M73,4 L66.1396545,37 L57.2982312,37 L60.2309749,22.8662342 L49.774167,22.8662342 L46.8414233,37 L38,37 L44.8589058,4 L53.7017688,4 L51.103044,16.6252191 L61.5555327,16.6252191 L64.1585767,4 L73,4 Z M98,4.45928311 L95.8880311,11.0037285 C94.2024489,10.2056605 91.9065205,9.50122871 88.6751082,9.50122871 C85.211251,9.50122871 82.3976692,10.0140666 82.3976692,12.6546055 C82.3976692,17.3133633 95.0951515,15.5746123 95.0951515,25.5576646 C95.0951515,34.6432506 86.7071696,37 79.1177714,37 C75.745181,37 71.8563631,36.1961698 69,35.3001441 L71.0620574,28.6130836 C72.791847,29.7453606 76.2628344,30.5002118 79.1177714,30.5002118 C81.8386605,30.5002118 86.0968234,29.9801712 86.0968234,26.5905432 C86.0968234,21.313787 73.4007671,23.2931108 73.4007671,14.0216931 C73.4007671,5.54258114 80.8047797,3 87.9734953,3 C92.0049174,3 95.7967644,3.42640454 98,4.45928311 L98,4.45928311 Z" id="NHS-logo-for-A4-10mm---CMYK-Blue" fill="#0067A5"></path>
    </g>
</svg>